<svg xmlns="http://www.w3.org/2000/svg" width="376.23" height="353.37" viewBox="0 0 376.23 353.37"><rect width="376.23" height="353.37" rx="70.12" opacity="0.8"/><path d="M406.64,502.24a5.58,5.58,0,0,0-.91,1.61,3.34,3.34,0,0,1-1,1.52l0,0a4,4,0,0,1-1,1.47v0a38.74,38.74,0,0,1-7.71,8.65l-.43.51a18.72,18.72,0,0,1-3.17,2.35l0,0a7.44,7.44,0,0,1-2,1.22l0,0a22.53,22.53,0,0,1-3.63,1.93l0,0a7.54,7.54,0,0,1-1.69.76h0a42.14,42.14,0,0,1-8.17,2.65h0a49.54,49.54,0,0,1-6.52,1.2l0,0a14.64,14.64,0,0,1-3,.41H324.63c-1.53,0-1.53,0-1.53-1.53,0-5.83,0-11.67,0-17.51,0-1,.3-1.32,1.22-1.23a5.77,5.77,0,0,0,.72,0c12.52.09,25-.05,37.54-.16a39.53,39.53,0,0,0,12.52-2.22l0,0c1.36-.67,2.8-1.15,4.11-1.92h0a5,5,0,0,1,1.22-.74l0,0c.47-.51,1.13-.78,1.64-1.25l.25-.23a24.67,24.67,0,0,0,2.69-2.62v0a14.3,14.3,0,0,1,1.68-2.19h0a7.41,7.41,0,0,1,1-1.46v0a6.78,6.78,0,0,1,1-1.69v0a4.52,4.52,0,0,1,.72-1.48l.21-.48a52.87,52.87,0,0,0,3.78-11,78.35,78.35,0,0,0,1.65-11.52c.29-3.54.35-7.08.33-10.62a82,82,0,0,0-.8-11.29,6.61,6.61,0,0,0-.13-1.66v0a84.59,84.59,0,0,0-2.16-9.16l0,0a12.71,12.71,0,0,1-1-2.66v0c-.61-1.31-1.27-2.59-1.91-3.88l0,0c-.5-.46-.63-1.15-1-1.68h0c-.32-.12-.31-.49-.52-.7l-.46-.71a16.63,16.63,0,0,1-1-1.4l-.25-.28c-.2-.35-.51-.62-.7-1h0c-1.25-1.32-2.48-2.66-3.83-3.88l0,0c-.51-.17-.76-.7-1.24-.91l-1.44-1c-.4-.24-.82-.43-1.2-.7l-.49-.26a29.05,29.05,0,0,0-3.82-1.49l0,0c-1.64-.54-3.4-.46-5.06-1l0,0a43.89,43.89,0,0,0-5.95-.45c-12.51-.27-25-.07-37.54-.13-1.77,0-1.77,0-1.77-1.78V393.72c0-1.42,0-1.46,1.37-1.46H366c1.91,0,3.81.34,5.72.28a.78.78,0,0,1,.68.42c.33.32.6,0,.89-.08a41.73,41.73,0,0,1,8.89,2,1.83,1.83,0,0,1,1,.5c.17.23.42.17.65.16.94.51,2.07.57,2.95,1.22l0,0a11,11,0,0,1,3.13,1.76l.7.39c.34.14.76.15,1,.52l0,0a3.78,3.78,0,0,1,1.7,1.28l1.15.87a1.15,1.15,0,0,1,.77.55l.18.17a3.16,3.16,0,0,1,1.26,1l4.5,4.72a1.5,1.5,0,0,1,1,1.25l.18.19c.5.12.53.64.78,1h0a3.18,3.18,0,0,1,.94,1.24l0,0a2.64,2.64,0,0,1,.8,1.15h0a15.19,15.19,0,0,1,2.1,3.27,32.17,32.17,0,0,1,2.69,5.38h0a44.43,44.43,0,0,1,2.61,6.77l0,0a48.7,48.7,0,0,1,2,6.91c.85,3,1,6.08,1.61,9.1.26,1.35.1,2.77.29,4.14h0c.37,1.11-.07,2.27.24,3.38h0a1.82,1.82,0,0,1,.28,1.36c0,3.87.23,7.74-.07,11.58-.27,3.54-.45,7.09-.95,10.61a.82.82,0,0,1-.22.42l0,0c-.26,1.41-.32,2.85-.57,4.27-.07.39-.08.78-.46,1-.18.09-.18.18,0,.29.49.26.07.55,0,.81a102.52,102.52,0,0,1-3.39,11.38,1.49,1.49,0,0,1-.39.73v0c-.3.63-.28,1.39-.81,1.93a.3.3,0,0,0-.15.4c-.26.58-.16,1.34-.79,1.75a.32.32,0,0,0-.17.41A11.63,11.63,0,0,1,406.64,502.24Z" transform="translate(-162.35 -295.02)" fill="#b25806"/><path d="M313.55,526.49c-3.28,0-6.55-.06-9.82-.06s-6.47,0-9.71.05c-.66-.22-.43-.79-.43-1.22q0-7.38,0-14.76V467a3.42,3.42,0,0,0-.1-1.42h0a3.46,3.46,0,0,0-1.43-.1H247.68c-1.37,0-1.37,0-1.37-1.35V447.18c0-2,0-2,2.07-2h43.67c1.53,0,1.53,0,1.53-1.5V393.76c0-1.67-.16-1.5,1.46-1.5,5.91,0,11.83,0,17.75,0,.94,0,1.2.23,1.2,1.19.26,43.14,0,86.28.11,129.43,0,1-.2,1.91-.13,2.87C314,526.06,313.94,526.37,313.55,526.49Z" transform="translate(-162.35 -295.02)" fill="#b25806"/><path d="M231.05,398.62l.5-.47c.61-.42,1-1.09,1.66-1.45l.26-.25c.79-.9,1.74-1.64,2.61-2.46.17-.16.37-.33.63-.22s.22.39.23.62,0,.56,0,.84q0,64.93,0,129.88c0,.46.17,1-.17,1.39H217c-.45-.28-.22-.73-.22-1.08q0-56.5,0-113a2,2,0,0,1,.8-1.87c1-.67,1.73-1.66,2.74-2.3h0c1.49-1.41,3-2.81,4.59-4.09l0,0a10.79,10.79,0,0,1,1.89-1.74l.24-.22c.82-.53,1.2-1.58,2.21-1.9h0A23.37,23.37,0,0,1,231.05,398.62Z" transform="translate(-162.35 -295.02)" fill="#b25806"/><path d="M409.6,405.56l-.47-.47c-1.25-1-2.37-2.13-3.59-3.16l0,0a49.58,49.58,0,0,0-7.9-4.7c-1-.5-2.14-.86-3.21-1.32-.77-.33-.8-.77-.38-1.27,1.15-1.35,2.22-2.48,4.41-2.47,21.55.11,43.09.07,64.64.06.79,0,1.54,0,1.89.88v0a23.62,23.62,0,0,1,3.85,4.38l.17.2a11.26,11.26,0,0,1,2.46,2.65h0c1.82,1.67,3.32,3.65,5,5.45s3.27,3.7,4.94,5.51c.25.28.67.52.42,1s-.59.34-.95.35h-.6q-32,0-64,0c-.39,0-.73,0-.95-.34a23.43,23.43,0,0,1-1.83-2.49h0c-1.07-1.18-2.16-2.34-3.15-3.6h0A1.43,1.43,0,0,1,409.6,405.56Z" transform="translate(-162.35 -295.02)" fill="#b25806"/><path d="M396.16,526.26l-.25-.23a2.53,2.53,0,0,1-.71-.71l-.73-.73c-1-1.06-.88-1.92.42-2.41A40,40,0,0,0,406,516a42.65,42.65,0,0,0,8.15-8.71,2.44,2.44,0,0,1,2.37-1.22c5.48.12,11,.05,16.44.05h49.65c.53,0,1.34-.28,1.53.29s-.59.94-1,1.32c-1.84,1.58-3.63,3.22-5.45,4.83-2.75,2.42-5.5,4.84-8.21,7.3-1.86,1.69-3.85,3.24-5.59,5a4.63,4.63,0,0,1-3.57,1.52c-20.91-.07-41.82,0-62.73,0A2.71,2.71,0,0,1,396.16,526.26Z" transform="translate(-162.35 -295.02)" fill="#b25806"/><path d="M314,534.43c-3.11,0-6.23,0-9.34,0-.34,0-.83-.2-1,.13s.4.58.6.89.11.7.12,1v12.23a1.85,1.85,0,0,1-.12,1.06.21.21,0,0,1-.22.23c-.63.51-.52.83.27.82,3.26,0,6.52.11,9.78-.06,4.44-.11,7.31-2.88,7.78-6.71C322.52,538.7,319.77,534.48,314,534.43Zm4.31,10c-.42,2.33-1.68,3.43-4.24,3.61-1.83.13-3.67,0-5.51.07-.66,0-.67-.36-.67-.84,0-1.56,0-3.11,0-4.67s0-3.12,0-4.68c0-.38-.1-.86.53-.84a45.22,45.22,0,0,1,6.58.2,3.77,3.77,0,0,1,3.22,3.11A9.83,9.83,0,0,1,318.3,544.43Z" transform="translate(-162.35 -295.02)" fill="#fff"/><path d="M374.81,547.82c3.3,0,6.6,0,9.9,0a1.59,1.59,0,0,0,1-.46c.57-.44.83-.27.81.45,0,.91,0,1.83,0,2.74,0,.67-.24.81-.77.38a2,2,0,0,0-1.16-.11l-13,0c-.38,0-.79.14-1.14-.14,1-2.35.41-4.83.51-7.24s0-4.63,0-6.94a3.81,3.81,0,0,0,0-.83c-.33-1.28-.34-1.27,1.08-1.27h9.21c1.7,0,3.44.24,5-.71a11.59,11.59,0,0,1,0,4.07c-.44.11-.58-.3-.85-.5-3.36-.22-6.73,0-10.1-.1-.44,0-.68.14-.65.61a16.61,16.61,0,0,0,.13,3.07c2.15,0,4.32.3,6.45-.21a2,2,0,0,0,.51-.29c.17-.17.16-.57.56-.48a.31.31,0,0,1,.25.34c-.08,1.5.26,3-.18,4.51-.72.1-.58-.68-.95-.94a62.22,62.22,0,0,0-6.26-.13.43.43,0,0,0-.5.51A21.22,21.22,0,0,0,374.81,547.82Z" transform="translate(-162.35 -295.02)" fill="#fff"/><path d="M221.5,535.31c-.09-.25-.56-.21-.44-.61s.44-.26.69-.27c1,0,2.07,0,3.1,0s1,.31.45.94a25.74,25.74,0,0,0,0,5.48c3.2.15,6.4.08,9.6,0a26.77,26.77,0,0,0,0-5.66c-.18-.14-.47-.17-.44-.49s.23-.28.43-.28h4.54a2.74,2.74,0,0,0-.74,2.49q0,5.49,0,11a4.17,4.17,0,0,0,.52,2.81,15.64,15.64,0,0,1-4.78,0c-.08-.4.15-.6.47-.73a50.07,50.07,0,0,0,.12-5.48c0-.48-.22-.6-.66-.6h-8.49c-.4,0-.71.05-.69.56a50.42,50.42,0,0,0,.11,5.36c.08.33.49.47.47.85a12.3,12.3,0,0,1-4.76,0c-.09-.42.24-.58.49-.8.22-2.23.08-4.46.08-6.69C221.58,540.56,221.72,537.93,221.5,535.31Z" transform="translate(-162.35 -295.02)" fill="#fff"/><path d="M425.92,537.86c-.5-.34-.68-.72.11-.77,1.15-.08,2.31,0,3.47,0,.25,0,.5,0,.48.37-.06.85.59,1.26,1.08,1.76q2.91,3.09,5.85,6.15a2.13,2.13,0,0,0,1.11.81c-.37-3,.58-6-.7-9.09,1,0,2.14,0,3.23,0,.66,0,.59.37.25.76a7,7,0,0,0-.12,2.37c0,2.87,0,5.75,0,8.62,0,.39-.12.8.13,1.17h0c.41.41.51.79-.23.83-1,.06-2,0-3,0-.61,0-.6-.39-.42-.82L429,541.16l-.29.11c.18,2.92-.33,5.85.27,8.76.38.28.65.76,0,.77-1.17,0-2.39.35-3.54-.18l.46-.67a6.05,6.05,0,0,0,.11-2.12q0-4.4,0-8.81A2.1,2.1,0,0,0,425.92,537.86Z" transform="translate(-162.35 -295.02)" fill="#fff"/><path d="M253.41,544.2a6.61,6.61,0,0,1,1-4.15c1.12-1.82,2.94-2.53,4.9-2.95A11.4,11.4,0,0,1,267,538c.18.09.39.25.54.22,2.28-.48.65.82.51,1.24a6,6,0,0,1-1.24,2.13c-.64-2-2.39-2.16-4-2.33-2-.2-3.93.07-5.38,1.7a3.89,3.89,0,0,0-1,2.52,4.17,4.17,0,0,0,3.27,4.53,11.86,11.86,0,0,0,6-.15c.81-.2.81-.72.79-1.35,0-.83-.65-.61-1.05-.56-1,.14-2.23-.49-3.16.53-.22.24-.44-.06-.46-.31a9.46,9.46,0,0,1,0-1.19c0-.87-.41-2.21,1.36-1.26.38.21.95,0,1.43,0h4.7a7,7,0,0,0,0,4.86c.17.39-.25.44-.46.56a9.85,9.85,0,0,1-4.22,1.42c-2.71.19-5.41.41-8-1a5.88,5.88,0,0,1-3.11-4.19C253.39,545.06,253.63,544.59,253.41,544.2Z" transform="translate(-162.35 -295.02)" fill="#fff"/><path d="M277.62,545.22c0,1.38,0,2.76-.06,4.14,0,.54.39.84.52,1.28a8,8,0,0,1-4,0,4.69,4.69,0,0,0,.5-2.94c0-2.87,0-5.75,0-8.63,0-.35.11-.75-.13-1.05-.66-.84-.24-1,.57-1,1,0,2,0,3,0-.79,1.65-.33,3.25-.44,4.82,0,.46.35.45.67.45,2.28,0,4.56,0,6.84,0,.61,0,.79-.25.72-.79-.19-1.31.41-2.7-.41-4-.18-.28,0-.53.4-.53h3.7a2.77,2.77,0,0,0-.66,2.2c0,3.16,0,6.31,0,9.47a3.15,3.15,0,0,0,.53,1.9,8.13,8.13,0,0,1-4,0c.81-1.76.43-3.62.44-5.45A55.29,55.29,0,0,0,277.62,545.22Z" transform="translate(-162.35 -295.02)" fill="#fff"/><path d="M468.92,548.12a1.58,1.58,0,0,0,.9-.24c.67-.25,1.28-.68,1.22-1.39s-.8-.91-1.43-1c-1.91-.35-3.84-.58-5.71-1.05-1.34-.34-2.74-.85-3-2.57a3.45,3.45,0,0,1,0-1.66c.33-1.81,1.68-2.63,3.25-3a11.34,11.34,0,0,1,8,.89c.4.2.7.49,1.28.28s.84.2.47.79a7.23,7.23,0,0,1-.4.73c-.38.46-.41,1.28-1,1.44s-.74-.7-1.23-.95a8.15,8.15,0,0,0-2.62-.9,10.29,10.29,0,0,0-3.23,0c-.83,0-1.57.3-1.61,1.23s.71,1.1,1.45,1.27a10.89,10.89,0,0,0,3.05.41c.38.25.84,0,1.22.2a19.25,19.25,0,0,1,2.59.88,3.41,3.41,0,0,1,.65,5.82,6.86,6.86,0,0,1-3.8,1.44,16.63,16.63,0,0,1-8-1.39c-.55-.21-.57-.49-.42-.89.27-.73.62-1.43.88-2.17a.68.68,0,0,1,.58-.51c.45-.06.33.33.37.58a1.25,1.25,0,0,0,.74.87,6.12,6.12,0,0,0,3,.93A7.42,7.42,0,0,0,468.92,548.12Z" transform="translate(-162.35 -295.02)" fill="#fff"/><path d="M330,539.71c-.16,2.64-.16,2.59,2.49,2.65a14,14,0,0,0,3.71-.49,10,10,0,0,1,.09,2.94c0,.74-.43.63-.8.17h0a25.83,25.83,0,0,0-5.49,0c-.2,3.36-.2,3.36,3.12,3.36h4.08a1.78,1.78,0,0,0,.93-.13c1.16-.63,1.17-.62,1.17.77,0,.52,0,1,0,1.56s-.14.83-.7.44a10.34,10.34,0,0,0-2.83-.11c-2.78,0-5.56,0-8.33,0-.5,0-1.26.15-.73-.81l.16-.22a68.42,68.42,0,0,0,.09-6.87,31.6,31.6,0,0,0-.09-5c-.06-.3-.64-.31-.44-.74s.5-.18.75-.18h9.57c.36,0,.79.1,1.06-.06,1.3-.8,1.3,0,1.25.94a13.28,13.28,0,0,1,0,1.55c-.12.65-.48.78-.93.22A52,52,0,0,0,330,539.71Z" transform="translate(-162.35 -295.02)" fill="#fff"/><path d="M408.5,550l.16-.22a25.5,25.5,0,0,0,.09-4.37c0-2.49.15-5-.09-7.46-.06-.3-.65-.31-.44-.74s.5-.18.75-.18q4.61,0,9.22,0a3.68,3.68,0,0,0,2-.31c.42-.26.68-.19.68.35a23.8,23.8,0,0,1,0,2.39c-.08.86-.48.8-.94.21a51.89,51.89,0,0,0-8.08,0c-.16,2.64-.16,2.68,2.46,2.61,1.09,0,2.3.45,3.27-.48.34-.14.56,0,.57.34a21,21,0,0,1,0,2.63c-.06.73-.43.63-.81.17h0a25.83,25.83,0,0,0-5.49,0c-.2,3.36-.2,3.36,3.12,3.36H419a1.79,1.79,0,0,0,.93-.13c1.16-.64,1.17-.62,1.17.77,0,.52,0,1,0,1.56s-.14.83-.71.44a10.25,10.25,0,0,0-2.82-.11c-2.78,0-5.56,0-8.33,0C408.72,550.85,408,551,408.5,550Z" transform="translate(-162.35 -295.02)" fill="#fff"/><path d="M347.23,539.71c-.19,2.88-.19,2.85,2.61,2.88a11.16,11.16,0,0,0,4.06-.48,11.07,11.07,0,0,1,.13,3c0,.37-.23.47-.57.36l-.29-.29a29.48,29.48,0,0,0-5.94,0c0,1.37,0,2.75-.07,4.11-.06.71.63.83.76,1.34a14.76,14.76,0,0,1-4.3.12c-.14-.09-.31-.29-.19-.36,1-.56.72-1.47.72-2.3,0-3,0-5.91,0-8.87,0-.76.06-1.5-.81-1.87.32-.52.76-.31,1.11-.31,3.08,0,6.15,0,9.22,0a8.53,8.53,0,0,0,3.33-.49,7.43,7.43,0,0,1,0,3.35c-.26,0-.57.06-.75-.23a35.28,35.28,0,0,0-5.34-.11A16.18,16.18,0,0,0,347.23,539.71Z" transform="translate(-162.35 -295.02)" fill="#fff"/><path d="M395,550c.14-1.21-.73-2-1.16-3-1.19-2.74-2.5-5.42-3.7-8.15-.28-.63-.94-1-1.25-1.77H393c.26,0,.59.11.44.38-.58,1.06.18,1.83.54,2.65,1,2.28,2.07,4.52,3.19,6.93,1.23-2.53,2.36-4.9,3.31-7.35.3-.78,1.28-1.48,0-2.51H405a26.26,26.26,0,0,0-2.78,5.46c-.93,2-1.79,4-2.71,6a1.92,1.92,0,0,0,0,2.14,20.24,20.24,0,0,1-4.19.12C394.76,550.85,394.73,550.46,395,550Z" transform="translate(-162.35 -295.02)" fill="#fff"/><path d="M453,549.84c.05.34.54.44.48.84a9.7,9.7,0,0,1-4.05,0c1-3.62.28-7.32.43-11a15.79,15.79,0,0,0-4.45,0c-.39.24-.76.43-.77-.29,0-1,0-2,0-3.27,1,1.15,2,.91,3.08.91,2.36,0,4.72-.06,7.07,0a6.11,6.11,0,0,0,3.27-.74,17.55,17.55,0,0,1,.1,3.16c0,.39-.14.61-.57.49l-.3-.29a23.85,23.85,0,0,0-3.78-.13c-.46,0-.63.19-.62.64C453,543.42,452.78,546.63,453,549.84Z" transform="translate(-162.35 -295.02)" fill="#fff"/><path d="M249.06,537.79c-.44.2-.29.6-.29.93q0,5.19,0,10.36c0,.33-.14.74.29.94.19.17.61.12.56.51s-.39.32-.65.33h-3.45c-.23,0-.51,0-.6-.26s.29-.4.47-.58a1.25,1.25,0,0,0,.35-1.09q0-5,0-10.06a1.23,1.23,0,0,0-.35-1.08c-.21-.2-.73-.22-.41-.72h4.55C249.91,537.66,249.27,537.58,249.06,537.79Z" transform="translate(-162.35 -295.02)" fill="#fff"/><path d="M451.48,446.93c7.67,0,15.35,0,23,0,1,0,1.3.22,1.29,1.26-.05,5.87,0,11.75,0,17.63,0,1-.3,1.2-1.22,1.19q-23,0-46.07,0c-.71,0-1.05-.06-1-.95a116.91,116.91,0,0,0-.31-18.43c-.09-1,.56-.67,1-.67h23.28Z" transform="translate(-162.35 -295.02)" fill="#b25806"/></svg>