<?xml version="1.0" encoding="utf-8"?>
<!-- Generator: Adobe Illustrator 26.0.2, SVG Export Plug-In . SVG Version: 6.00 Build 0)  -->
<svg version="1.1" id="Layer_1" xmlns="http://www.w3.org/2000/svg" xmlns:xlink="http://www.w3.org/1999/xlink" x="0px" y="0px"
	 viewBox="0 0 1920 1080" style="enable-background:new 0 0 1920 1080;" xml:space="preserve">
<style type="text/css">
	.st0{fill:#B25806;}
	.st1{fill:#828180;}
</style>
<g>
	<path class="st0" d="M1016.2,788.2c-0.3,0.5-0.8,1-0.9,1.6c-0.1,0.6-0.5,1.1-1,1.5l0,0c-0.2,0.5-0.5,1.1-1,1.5l0,0
		c-2.1,3.3-4.7,6.1-7.7,8.7c-0.1,0.2-0.3,0.3-0.4,0.5c-1,0.9-2,1.7-3.2,2.4l0,0c-0.6,0.5-1.3,0.9-1.9,1.2l0,0
		c-1.1,0.8-2.4,1.3-3.6,1.9l0,0c-0.5,0.3-1.1,0.6-1.7,0.8l0,0c-2.6,1.1-5.4,2.1-8.2,2.7l0,0c-2.1,0.6-4.3,0.9-6.5,1.2l0,0
		c-1,0.2-2,0.4-3,0.4c-14.4,0-28.7,0-43.1,0c-1.5,0-1.5,0-1.5-1.5c0-5.8,0-11.7,0-17.5c0-1,0.3-1.3,1.2-1.2c0.2,0,0.5,0,0.7,0
		c12.5,0.1,25-0.1,37.5-0.2c4.3,0,8.5-0.8,12.5-2.2l0,0c1.4-0.7,2.8-1.1,4.1-1.9l0,0c0.3-0.4,0.8-0.5,1.2-0.7l0,0
		c0.5-0.5,1.1-0.8,1.6-1.2c0.1-0.1,0.2-0.2,0.3-0.2c1-0.8,1.8-1.7,2.7-2.6l0,0c0.5-0.8,1.1-1.5,1.7-2.2l0,0c0.3-0.5,0.6-1,1-1.5l0,0
		c0.2-0.6,0.6-1.2,1-1.7l0,0c0.2-0.5,0.4-1,0.7-1.5c0.1-0.2,0.1-0.3,0.2-0.5c1.7-3.5,2.9-7.2,3.8-11c0.9-3.8,1.3-7.6,1.6-11.5
		c0.3-3.5,0.4-7.1,0.3-10.6c0-3.8-0.2-7.5-0.8-11.3c-0.1-0.6,0.1-1.1-0.1-1.7l0,0c-0.6-3.1-1.2-6.2-2.2-9.2l0,0
		c-0.5-0.8-0.6-1.8-1-2.7l0,0c-0.6-1.3-1.3-2.6-1.9-3.9l0,0c-0.5-0.5-0.6-1.1-1-1.7l0,0c-0.3-0.1-0.3-0.5-0.5-0.7
		c-0.2-0.2-0.3-0.5-0.5-0.7c-0.4-0.4-0.6-1-1-1.4c-0.1-0.1-0.2-0.2-0.2-0.3c-0.2-0.3-0.5-0.6-0.7-1l0,0c-1.3-1.3-2.5-2.7-3.8-3.9
		l0,0c-0.5-0.2-0.8-0.7-1.2-0.9c-0.5-0.3-1-0.7-1.4-1c-0.4-0.2-0.8-0.4-1.2-0.7c-0.2-0.1-0.3-0.2-0.5-0.3c-1.2-0.7-2.5-1-3.8-1.5
		l0,0c-1.6-0.5-3.4-0.5-5.1-1l0,0c-2-0.3-4-0.4-5.9-0.5c-12.5-0.3-25-0.1-37.5-0.1c-1.8,0-1.8,0-1.8-1.8c0-5.7,0-11.4,0-17.2
		c0-1.4,0-1.5,1.4-1.5c13.8,0,27.7,0,41.5,0c1.9,0,3.8,0.3,5.7,0.3c0.3,0,0.5,0.2,0.7,0.4c0.3,0.3,0.6,0,0.9-0.1c3,0.4,6,1,8.9,2
		c0.4,0.1,0.8,0.2,1,0.5c0.2,0.2,0.4,0.2,0.6,0.2c0.9,0.5,2.1,0.6,3,1.2l0,0c1.1,0.5,2.2,0.9,3.1,1.8c0.2,0.1,0.5,0.3,0.7,0.4
		c0.3,0.1,0.8,0.2,1,0.5l0,0c0.7,0.3,1.3,0.7,1.7,1.3c0.4,0.3,0.8,0.6,1.1,0.9c0.3,0.1,0.6,0.2,0.8,0.6c0.1,0.1,0.1,0.1,0.2,0.2
		c0.6,0.2,0.9,0.6,1.3,1c1.5,1.6,3,3.1,4.5,4.7c0.6,0.2,0.9,0.7,1,1.2c0.1,0.1,0.1,0.1,0.2,0.2c0.5,0.1,0.5,0.6,0.8,1l0,0
		c0.4,0.3,0.7,0.8,0.9,1.2l0,0c0.4,0.3,0.6,0.7,0.8,1.2l0,0c0.9,1,1.5,2.1,2.1,3.3c1,1.7,2,3.5,2.7,5.4l0,0c1.1,2.2,1.9,4.4,2.6,6.8
		l0,0c1,2.2,1.3,4.6,2,6.9c0.8,3,1,6.1,1.6,9.1c0.3,1.4,0.1,2.8,0.3,4.1l0,0c0.4,1.1-0.1,2.3,0.2,3.4l0,0c0.4,0.4,0.3,0.9,0.3,1.4
		c0,3.9,0.2,7.7-0.1,11.6c-0.3,3.5-0.4,7.1-0.9,10.6c0,0.2-0.1,0.3-0.2,0.4l0,0c-0.3,1.4-0.3,2.9-0.6,4.3c-0.1,0.4-0.1,0.8-0.5,1
		c-0.2,0.1-0.2,0.2,0,0.3c0.5,0.3,0.1,0.5,0,0.8c-0.8,3.9-2.1,7.6-3.4,11.4c-0.1,0.3-0.2,0.5-0.4,0.7l0,0c-0.3,0.6-0.3,1.4-0.8,1.9
		c-0.2,0.1-0.2,0.2-0.1,0.4c-0.3,0.6-0.2,1.3-0.8,1.8c-0.2,0.1-0.2,0.2-0.2,0.4C1017.7,785.8,1017.1,787.1,1016.2,788.2z"/>
	<path class="st0" d="M923.1,812.4c-3.3,0-6.5-0.1-9.8-0.1c-3.2,0-6.5,0-9.7,0.1c-0.7-0.2-0.4-0.8-0.4-1.2c0-4.9,0-9.8,0-14.8
		c0-14.5,0-29,0-43.5c0-0.5,0.1-1-0.1-1.4l0,0c-0.5-0.2-0.9-0.1-1.4-0.1c-14.8,0-29.6,0-44.4,0c-1.4,0-1.4,0-1.4-1.3
		c0-5.6,0-11.3,0-16.9c0-2,0-2,2.1-2c14.2,0,28.4,0,42.6,0c0.4,0,0.7,0,1.1,0c1.5,0,1.5,0,1.5-1.5c0-16.6,0-33.3,0-49.9
		c0-1.7-0.2-1.5,1.5-1.5c5.9,0,11.8,0,17.8,0c0.9,0,1.2,0.2,1.2,1.2c0.3,43.1,0,86.3,0.1,129.4c0,1-0.2,1.9-0.1,2.9
		C923.5,812,923.5,812.3,923.1,812.4z"/>
	<path class="st0" d="M840.6,684.6c0.2-0.2,0.3-0.3,0.5-0.5c0.6-0.4,1-1.1,1.7-1.5c0.1-0.1,0.2-0.2,0.3-0.2c0.8-0.9,1.7-1.6,2.6-2.5
		c0.2-0.2,0.4-0.3,0.6-0.2c0.3,0.1,0.2,0.4,0.2,0.6c0,0.3,0,0.6,0,0.8c0,43.3,0,86.6,0,129.9c0,0.5,0.2,1-0.2,1.4
		c-6.6,0-13.2,0-19.7,0c-0.4-0.3-0.2-0.7-0.2-1.1c0-37.7,0-75.3,0-113c0-0.8,0.2-1.4,0.8-1.9c1-0.7,1.7-1.7,2.7-2.3l0,0
		c1.5-1.4,3-2.8,4.6-4.1l0,0c0.6-0.6,1.1-1.3,1.9-1.7c0.1-0.1,0.2-0.2,0.2-0.2c0.8-0.5,1.2-1.6,2.2-1.9l0,0
		C839.3,685.7,839.9,685.1,840.6,684.6z"/>
	<path class="st0" d="M1019.1,691.5c-0.2-0.2-0.3-0.3-0.5-0.5c-1.3-1-2.4-2.1-3.6-3.2l0,0c-2.5-1.8-5.1-3.4-7.9-4.7
		c-1-0.5-2.1-0.9-3.2-1.3c-0.8-0.3-0.8-0.8-0.4-1.3c1.2-1.4,2.2-2.5,4.4-2.5c21.5,0.1,43.1,0.1,64.6,0.1c0.8,0,1.5,0,1.9,0.9l0,0
		c1.5,1.3,2.8,2.7,3.8,4.4c0.1,0.1,0.1,0.1,0.2,0.2c1,0.7,1.8,1.7,2.5,2.7l0,0c1.8,1.7,3.3,3.6,5,5.4c1.7,1.8,3.3,3.7,4.9,5.5
		c0.3,0.3,0.7,0.5,0.4,1c-0.2,0.4-0.6,0.3-0.9,0.3c-0.2,0-0.4,0-0.6,0c-21.3,0-42.7,0-64,0c-0.4,0-0.7,0-1-0.3
		c-0.6-0.9-1.4-1.6-1.8-2.5l0,0c-1.1-1.2-2.2-2.3-3.1-3.6l0,0C1019.5,692.1,1019.3,691.8,1019.1,691.5z"/>
	<path class="st0" d="M1005.7,812.2c-0.1-0.1-0.2-0.2-0.2-0.2c-0.3-0.2-0.5-0.4-0.7-0.7c-0.2-0.2-0.5-0.5-0.7-0.7
		c-1-1.1-0.9-1.9,0.4-2.4c4-1.5,7.8-3.5,11.1-6.2c3.1-2.5,5.8-5.4,8.1-8.7c0.6-0.9,1.2-1.3,2.4-1.2c5.5,0.1,11,0.1,16.4,0.1
		c16.6,0,33.1,0,49.7,0c0.5,0,1.3-0.3,1.5,0.3c0.2,0.6-0.6,0.9-1,1.3c-1.8,1.6-3.6,3.2-5.5,4.8c-2.7,2.4-5.5,4.8-8.2,7.3
		c-1.9,1.7-3.8,3.2-5.6,5c-1,1-2,1.5-3.6,1.5c-20.9-0.1-41.8,0-62.7,0C1006.6,812.3,1006.1,812.5,1005.7,812.2z"/>
	<path class="st1" d="M923.5,820.4c-3.1,0-6.2,0-9.3,0c-0.3,0-0.8-0.2-1,0.1c-0.2,0.5,0.4,0.6,0.6,0.9c0.2,0.3,0.1,0.7,0.1,1v12.2
		c0,0.4,0.1,0.7-0.1,1.1c0,0.1-0.1,0.2-0.2,0.2c-0.6,0.5-0.5,0.8,0.3,0.8c3.3,0,6.5,0.1,9.8-0.1c4.4-0.1,7.3-2.9,7.8-6.7
		C932.1,824.6,929.3,820.4,923.5,820.4z M927.8,830.4c-0.4,2.3-1.7,3.4-4.2,3.6c-1.8,0.1-3.7,0-5.5,0.1c-0.7,0-0.7-0.4-0.7-0.8
		c0-1.6,0-3.1,0-4.7c0-1.6,0-3.1,0-4.7c0-0.4-0.1-0.9,0.5-0.8c2.2,0.1,4.4-0.2,6.6,0.2c1.8,0.3,2.8,1.4,3.2,3.1
		C928.1,827.7,928.1,829,927.8,830.4z"/>
	<path class="st1" d="M984.3,833.8c3.3,0,6.6,0,9.9,0.1c0.5,0,0.7-0.2,1-0.5c0.6-0.4,0.8-0.3,0.8,0.5c0,0.9,0,1.8,0,2.7
		c0,0.7-0.2,0.8-0.8,0.4c-0.4-0.2-0.8-0.1-1.2-0.1c-4.3,0-8.7,0-13,0c-0.4,0-0.8,0.1-1.1-0.1c1-2.3,0.4-4.8,0.5-7.2
		c0.1-2.3,0-4.6,0-6.9c0-0.3,0-0.6,0-0.8c-0.3-1.3-0.3-1.3,1.1-1.3c3.1,0,6.1,0,9.2,0c1.7,0,3.4,0.2,5-0.7c0.2,1.4,0.2,2.7,0,4.1
		c-0.4,0.1-0.6-0.3-0.9-0.5c-3.4-0.2-6.7,0-10.1-0.1c-0.4,0-0.7,0.1-0.6,0.6c0.1,1-0.1,2.1,0.1,3.1c2.2,0,4.3,0.3,6.5-0.2
		c0.2,0,0.3-0.2,0.5-0.3c0.2-0.2,0.2-0.6,0.6-0.5c0.2,0,0.3,0.2,0.3,0.3c-0.1,1.5,0.3,3-0.2,4.5c-0.7,0.1-0.6-0.7-1-0.9
		c-2.1-0.3-4.2-0.1-6.3-0.1c-0.3,0-0.5,0.2-0.5,0.5C984.3,831.3,984.1,832.6,984.3,833.8z"/>
	<path class="st1" d="M831,821.3c-0.1-0.2-0.6-0.2-0.4-0.6c0.1-0.4,0.4-0.3,0.7-0.3c1,0,2.1,0,3.1,0c1-0.1,1,0.3,0.5,0.9
		c-0.2,1.8-0.2,3.7,0,5.5c3.2,0.1,6.4,0.1,9.6,0c0.2-1.9,0.2-3.8,0-5.7c-0.2-0.1-0.5-0.2-0.4-0.5c0-0.3,0.2-0.3,0.4-0.3
		c1.4,0,2.8,0,4.5,0c-0.9,0.8-0.7,1.7-0.7,2.5c0,3.7,0,7.3,0,11c0,1-0.1,2,0.5,2.8c-1.6,0.2-3.2,0.2-4.8,0c-0.1-0.4,0.2-0.6,0.5-0.7
		c0.3-1.8,0-3.6,0.1-5.5c0-0.5-0.2-0.6-0.7-0.6c-2.8,0-5.7,0-8.5,0c-0.4,0-0.7,0.1-0.7,0.6c0.1,1.8-0.1,3.6,0.1,5.4
		c0.1,0.3,0.5,0.5,0.5,0.8c-1.6,0.3-3.2,0.3-4.8,0c-0.1-0.4,0.2-0.6,0.5-0.8c0.2-2.2,0.1-4.5,0.1-6.7
		C831.1,826.5,831.3,823.9,831,821.3z"/>
	<path class="st1" d="M1035.5,823.8c-0.5-0.3-0.7-0.7,0.1-0.8c1.2-0.1,2.3,0,3.5,0c0.2,0,0.5,0,0.5,0.4c-0.1,0.8,0.6,1.3,1.1,1.8
		c1.9,2.1,3.9,4.1,5.9,6.1c0.3,0.3,0.5,0.6,1.1,0.8c-0.4-3,0.6-6.1-0.7-9.1c1,0,2.1,0,3.2,0c0.7,0,0.6,0.4,0.2,0.8
		c-0.3,0.8-0.1,1.6-0.1,2.4c0,2.9,0,5.7,0,8.6c0,0.4-0.1,0.8,0.1,1.2l0,0c0.4,0.4,0.5,0.8-0.2,0.8c-1,0.1-2,0-3,0
		c-0.6,0-0.6-0.4-0.4-0.8c-2.7-3-5.4-5.9-8.2-8.9c-0.1,0-0.2,0.1-0.3,0.1c0.2,2.9-0.3,5.8,0.3,8.8c0.4,0.3,0.6,0.8,0,0.8
		c-1.2,0-2.4,0.4-3.5-0.2c0.2-0.2,0.3-0.5,0.5-0.7c0.3-0.7,0.1-1.4,0.1-2.1c0-2.9,0-5.9,0-8.8
		C1035.6,824.6,1035.7,824.2,1035.5,823.8z"/>
	<path class="st1" d="M862.9,830.1c-0.1-1.5,0.3-2.9,1-4.2c1.1-1.8,2.9-2.5,4.9-2.9c2.7-0.6,5.2-0.3,7.7,0.9
		c0.2,0.1,0.4,0.2,0.5,0.2c2.3-0.5,0.6,0.8,0.5,1.2c-0.2,0.7-0.6,1.5-1.2,2.1c-0.6-2-2.4-2.2-4-2.3c-2-0.2-3.9,0.1-5.4,1.7
		c-0.6,0.7-0.9,1.6-1,2.5c-0.1,2.3,1,3.9,3.3,4.5c2,0.6,4,0.3,6-0.2c0.8-0.2,0.8-0.7,0.8-1.4c0-0.8-0.6-0.6-1-0.6
		c-1.1,0.1-2.2-0.5-3.2,0.5c-0.2,0.2-0.4-0.1-0.5-0.3c0-0.4,0-0.8,0-1.2c0-0.9-0.4-2.2,1.4-1.3c0.4,0.2,0.9,0,1.4,0
		c1.6,0,3.1,0,4.7,0c-0.4,1.7-0.7,3.3,0,4.9c0.2,0.4-0.3,0.4-0.5,0.6c-1.3,0.8-2.7,1.3-4.2,1.4c-2.7,0.2-5.4,0.4-8-1
		c-1.7-0.9-2.7-2.3-3.1-4.2C862.9,831,863.2,830.5,862.9,830.1z"/>
	<path class="st1" d="M887.2,831.2c0,1.4,0,2.8-0.1,4.1c0,0.5,0.4,0.8,0.5,1.3c-1.3,0.4-2.7,0.3-4,0c0.6-0.9,0.5-1.9,0.5-2.9
		c0-2.9,0-5.8,0-8.6c0-0.4,0.1-0.7-0.1-1c-0.7-0.8-0.2-1,0.6-1c1,0,2,0,3,0c-0.8,1.7-0.3,3.3-0.4,4.8c0,0.5,0.3,0.5,0.7,0.5
		c2.3,0,4.6,0,6.8,0c0.6,0,0.8-0.3,0.7-0.8c-0.2-1.3,0.4-2.7-0.4-4c-0.2-0.3,0-0.5,0.4-0.5c1.1,0,2.3,0,3.7,0
		c-0.7,0.8-0.7,1.5-0.7,2.2c0,3.2,0,6.3,0,9.5c0,0.7,0.1,1.3,0.5,1.9c-1.3,0.4-2.7,0.3-4,0c0.8-1.8,0.4-3.6,0.4-5.4
		C892.6,831,889.9,831,887.2,831.2z"/>
	<path class="st1" d="M1078.5,834.1c0.3,0.1,0.6-0.1,0.9-0.2c0.7-0.3,1.3-0.7,1.2-1.4c-0.1-0.7-0.8-0.9-1.4-1
		c-1.9-0.3-3.8-0.6-5.7-1c-1.3-0.3-2.7-0.8-3-2.6c-0.1-0.6-0.1-1.1,0-1.7c0.3-1.8,1.7-2.6,3.3-3c2.7-0.7,5.4-0.4,8,0.9
		c0.4,0.2,0.7,0.5,1.3,0.3c0.5-0.2,0.8,0.2,0.5,0.8c-0.1,0.2-0.2,0.5-0.4,0.7c-0.4,0.5-0.4,1.3-1,1.4c-0.6,0.2-0.7-0.7-1.2-0.9
		c-0.8-0.4-1.7-0.8-2.6-0.9c-1.1-0.2-2.2-0.2-3.2,0c-0.8,0-1.6,0.3-1.6,1.2c0,0.9,0.7,1.1,1.4,1.3c1,0.2,2,0.5,3,0.4
		c0.4,0.3,0.8,0,1.2,0.2c0.9,0.3,1.8,0.5,2.6,0.9c2.4,1.2,2.7,4.2,0.7,5.8c-1.1,0.9-2.4,1.3-3.8,1.4c-2.8,0.3-5.4-0.4-8-1.4
		c-0.6-0.2-0.6-0.5-0.4-0.9c0.3-0.7,0.6-1.4,0.9-2.2c0.1-0.3,0.3-0.5,0.6-0.5c0.5-0.1,0.3,0.3,0.4,0.6c0.1,0.4,0.4,0.7,0.7,0.9
		c0.9,0.5,1.9,0.9,3,0.9C1076.6,834.2,1077.5,834.2,1078.5,834.1z"/>
	<path class="st1" d="M939.5,825.7c-0.2,2.6-0.2,2.6,2.5,2.7c1.3,0,2.5-0.2,3.7-0.5c0.3,1,0.1,2,0.1,2.9c0,0.7-0.4,0.6-0.8,0.2l0,0
		c-1.8-0.2-3.7-0.2-5.5,0c-0.2,3.4-0.2,3.4,3.1,3.4c1.4,0,2.7,0,4.1,0c0.3,0,0.6,0,0.9-0.1c1.2-0.6,1.2-0.6,1.2,0.8c0,0.5,0,1,0,1.6
		c0,0.4-0.1,0.8-0.7,0.4c-0.9-0.3-1.9-0.1-2.8-0.1c-2.8,0-5.6,0-8.3,0c-0.5,0-1.3,0.1-0.7-0.8c0.1-0.1,0.1-0.1,0.2-0.2
		c0.2-2.3,0.1-4.6,0.1-6.9c0-1.7,0.2-3.3-0.1-5c-0.1-0.3-0.6-0.3-0.4-0.7c0.2-0.3,0.5-0.2,0.7-0.2c3.2,0,6.4,0,9.6,0
		c0.4,0,0.8,0.1,1.1-0.1c1.3-0.8,1.3,0,1.2,0.9c0,0.5,0.1,1,0,1.6c-0.1,0.6-0.5,0.8-0.9,0.2C944.9,825.4,942.2,825.4,939.5,825.7z"
		/>
	<path class="st1" d="M1018,836c0.1-0.1,0.1-0.1,0.2-0.2c0.2-1.5,0.1-2.9,0.1-4.4c0-2.5,0.1-5-0.1-7.5c-0.1-0.3-0.6-0.3-0.4-0.7
		c0.2-0.3,0.5-0.2,0.7-0.2c3.1,0,6.1,0,9.2,0c0.7,0,1.3,0.1,2-0.3c0.4-0.3,0.7-0.2,0.7,0.4c0,0.8,0.1,1.6,0,2.4
		c-0.1,0.9-0.5,0.8-0.9,0.2c-2.7-0.2-5.4-0.2-8.1,0c-0.2,2.6-0.2,2.7,2.5,2.6c1.1,0,2.3,0.4,3.3-0.5c0.3-0.1,0.6,0,0.6,0.3
		c0,0.9,0.1,1.8,0,2.6c-0.1,0.7-0.4,0.6-0.8,0.2l0,0c-1.8-0.2-3.7-0.2-5.5,0c-0.2,3.4-0.2,3.4,3.1,3.4c1.4,0,2.7,0,4.1,0
		c0.3,0,0.6,0,0.9-0.1c1.2-0.6,1.2-0.6,1.2,0.8c0,0.5,0,1,0,1.6c0,0.4-0.1,0.8-0.7,0.4c-0.9-0.3-1.9-0.1-2.8-0.1c-2.8,0-5.6,0-8.3,0
		C1018.3,836.8,1017.5,837,1018,836z"/>
	<path class="st1" d="M956.8,825.7c-0.2,2.9-0.2,2.9,2.6,2.9c1.4,0,2.7,0,4.1-0.5c0.3,1,0.1,2,0.1,3c0,0.4-0.2,0.5-0.6,0.4
		c-0.1-0.1-0.2-0.2-0.3-0.3c-2-0.2-4-0.2-5.9,0c0,1.4,0,2.7-0.1,4.1c-0.1,0.7,0.6,0.8,0.8,1.3c-1.4,0.4-2.9,0.2-4.3,0.1
		c-0.1-0.1-0.3-0.3-0.2-0.4c1-0.6,0.7-1.5,0.7-2.3c0-3,0-5.9,0-8.9c0-0.8,0.1-1.5-0.8-1.9c0.3-0.5,0.8-0.3,1.1-0.3
		c3.1,0,6.1,0,9.2,0c1.1,0,2.3-0.1,3.3-0.5c0.2,1.1,0.3,2.2,0,3.3c-0.3,0-0.6,0.1-0.8-0.2c-1.8-0.3-3.6-0.1-5.3-0.1
		C959.2,825.5,958,825.4,956.8,825.7z"/>
	<path class="st1" d="M1004.6,836c0.1-1.2-0.7-2.1-1.2-3c-1.2-2.7-2.5-5.4-3.7-8.1c-0.3-0.6-0.9-0.9-1.2-1.8c1.5,0,2.8,0,4.1,0
		c0.3,0,0.6,0.1,0.4,0.4c-0.6,1.1,0.2,1.8,0.5,2.7c1,2.3,2.1,4.5,3.2,6.9c1.2-2.5,2.4-4.9,3.3-7.4c0.3-0.8,1.3-1.5,0-2.5
		c1.6,0,3,0,4.5,0c-1.3,1.7-1.9,3.6-2.8,5.5c-0.9,2-1.8,4-2.7,6c-0.3,0.7-0.5,1.4,0,2.1c-1.4,0.3-2.8,0.1-4.2,0.1
		C1004.3,836.8,1004.3,836.4,1004.6,836z"/>
	<path class="st1" d="M1062.6,835.8c0.1,0.3,0.5,0.4,0.5,0.8c-1.4,0.3-2.7,0.3-4.1,0c1-3.6,0.3-7.3,0.4-11c-1.5-0.2-3-0.2-4.5,0
		c-0.4,0.2-0.8,0.4-0.8-0.3c0-1,0-2,0-3.3c1,1.1,2.1,0.9,3.1,0.9c2.4,0,4.7-0.1,7.1,0c1.2,0,2.2-0.2,3.3-0.7c0.2,1,0.1,2.1,0.1,3.2
		c0,0.4-0.1,0.6-0.6,0.5c-0.1-0.1-0.2-0.2-0.3-0.3c-1.3-0.3-2.5-0.1-3.8-0.1c-0.5,0-0.6,0.2-0.6,0.6
		C1062.5,829.4,1062.3,832.6,1062.6,835.8z"/>
	<path class="st1" d="M858.6,823.7c-0.4,0.2-0.3,0.6-0.3,0.9c0,3.5,0,6.9,0,10.4c0,0.3-0.1,0.7,0.3,0.9c0.2,0.2,0.6,0.1,0.6,0.5
		c0,0.4-0.4,0.3-0.7,0.3c-1.2,0-2.3,0-3.5,0c-0.2,0-0.5,0-0.6-0.3c-0.1-0.4,0.3-0.4,0.5-0.6c0.4-0.3,0.3-0.7,0.3-1.1
		c0-3.4,0-6.7,0-10.1c0-0.4,0-0.8-0.3-1.1c-0.2-0.2-0.7-0.2-0.4-0.7c1.5,0,3,0,4.6,0C859.4,823.6,858.8,823.5,858.6,823.7z"/>
	<path class="st0" d="M1061,732.9c7.7,0,15.4,0,23,0c1,0,1.3,0.2,1.3,1.3c-0.1,5.9,0,11.8,0,17.6c0,1-0.3,1.2-1.2,1.2
		c-15.4,0-30.7,0-46.1,0c-0.7,0-1.1-0.1-1-1c0.4-6.1,0.3-12.3-0.3-18.4c-0.1-1,0.6-0.7,1-0.7c6.3,0,12.6,0,19,0
		C1058.1,732.9,1059.6,732.9,1061,732.9z"/>
</g>
<g>
	<path d="M-176.7,525.8c0-0.5,0-1,0-1.4c0-5.6,0-11.2,0-16.8c0-1.1,0.3-1.5,1.4-1.5c11.1,0,22.2,0,33.2-0.1c4.9,0,9.8-0.3,14.6-1.6
		c8.6-2.2,14-8,17.5-15.9c2.7-6,4.1-12.4,4.8-18.9c0.9-9.6,0.9-19.2-0.8-28.7c-1.4-7.7-4.4-14.6-9.7-20.4c-3.9-4.4-8.8-7.1-14.6-7.7
		c-3.8-0.4-7.6-0.7-11.5-0.8c-11.1-0.1-22.2-0.1-33.4-0.1c-1.2,0-1.6-0.3-1.6-1.5c0.1-5.6,0.1-11.2,0-16.8c0-1.1,0.3-1.4,1.4-1.4
		c11.6,0,23.2,0,34.8,0c3.9,0,7.8,0,11.7,0.4c7.7,0.8,15,3,21.4,7.6c6.4,4.6,11.2,10.5,14.9,17.4c3.5,6.7,5.6,13.8,7,21.1
		c1.6,8.5,1.8,17.1,1.5,25.7c-0.3,9.3-1.9,18.4-5,27.1c-2.5,7-5.9,13.4-10.7,19c-4.5,5.2-9.9,9.1-16.3,11.6c-5.1,2-10.4,3-15.8,3.6
		c-2.6,0.3-5.2,0.2-7.8,0.2c-11.9,0-23.8,0-35.8,0C-175.7,525.8-176.1,525.8-176.7,525.8z"/>
	<path d="M-186.3,459c0,21.1,0,42.2,0,63.2c0,1.2,0.3,2.8-0.3,3.3c-0.7,0.6-2.2,0.3-3.4,0.3c-5,0-10,0-15,0c-1,0-1.4-0.3-1.4-1.3
		c0-19.3,0-38.6,0-57.8c0-1.9,0-1.9-1.9-1.9c-14.6,0-29.2,0-43.8,0c-1.1,0-1.5-0.3-1.5-1.5c0.1-5.6,0.1-11.3,0-16.9
		c0-1.2,0.3-1.5,1.5-1.5c14.6,0,29.3,0,43.9,0c1.8,0,1.8,0,1.8-1.8c0-16.6,0-33.2,0-49.8c0-1.1,0.4-1.4,1.4-1.4c5.8,0,11.5,0,17.3,0
		c1.1,0,1.3,0.3,1.3,1.4C-186.3,415.4-186.3,437.2-186.3,459C-186.3,459-186.3,459-186.3,459z"/>
	<path d="M-263.3,393.9c0,0.4,0,0.8,0,1.2c0,43.2,0,86.3,0,129.5c0,1.6,0,1.6-1.6,1.6c-5.5,0-11,0-16.4,0c-1.6,0-1.6,0-1.6-1.6
		c0-33.6,0-67.2,0-100.8c0-3.8,0-7.6,0-11.4c0-1,0.4-1.6,1-2.1c5.4-4.7,10.7-9.5,16-14.3c0.8-0.7,1.6-1.4,2.4-2.1
		C-263.5,393.8-263.4,393.8-263.3,393.9z"/>
	<path d="M-16.2,506.3c-1.5,1.3-3,2.7-4.5,4c-5.5,5-11.1,9.9-16.7,14.8c-0.4,0.4-1.1,0.7-1.7,0.7c-21.1,0-42.2,0-63.2,0.1
		c-1.8,0-2.6-1.2-3.5-2.3c-0.5-0.6-0.1-1.2,0.7-1.5c4.2-1.5,8-3.6,11.4-6.4c3.1-2.6,5.8-5.5,8.1-8.8c0.4-0.6,0.9-0.8,1.7-0.8
		c22.1,0,44.2,0,66.4,0c0.4,0,0.7,0,1.1,0C-16.3,506.1-16.3,506.2-16.2,506.3z"/>
	<path d="M-18.3,411.9c-0.8,0-1.2,0.1-1.6,0.1c-21.2,0-42.5,0-63.7,0c-0.5,0-1.2-0.4-1.5-0.9c-3.9-5.2-8.4-9.7-14.2-12.9
		c-1.9-1.1-4-1.9-6-2.8c-0.9-0.4-0.9-0.7-0.4-1.4c1-1.2,2.2-1.9,4-1.9c21.5,0.1,43,0.1,64.4,0c1,0,1.6,0.3,2.3,1
		c5.2,5.9,10.4,11.7,15.6,17.5C-19,411.1-18.7,411.3-18.3,411.9z"/>
	<path d="M-72.7,446.7c0.6,0,1,0,1.4,0c15.1,0,30.1,0,45.2,0c1.6,0,1.6,0,1.6,1.6c0,5.6,0,11.2,0,16.8c0,1.1-0.3,1.5-1.4,1.5
		c-15.1,0-30.2,0-45.3,0c-1,0-1.3-0.2-1.3-1.3c0.1-3,0.2-6,0.2-9c0-2.9-0.3-5.7-0.4-8.6C-72.7,447.4-72.7,447.2-72.7,446.7z"/>
</g>
</svg>
