<svg xmlns="http://www.w3.org/2000/svg" width="267.38" height="159.37" viewBox="0 0 267.38 159.37"><path d="M189.85,110.3a5.07,5.07,0,0,0-.9,1.6,2.52,2.52,0,0,1-1,1.5h0a3.6,3.6,0,0,1-1,1.5h0a39.75,39.75,0,0,1-7.7,8.7c-.1.2-.3.3-.4.5a19.1,19.1,0,0,1-3.2,2.4h0a10,10,0,0,1-1.9,1.2h0a24.75,24.75,0,0,1-3.6,1.9h0a8.86,8.86,0,0,1-1.7.8h0a46.32,46.32,0,0,1-8.2,2.7h0a46.56,46.56,0,0,1-6.5,1.2h0a15.44,15.44,0,0,1-3,.4h-43.1c-1.5,0-1.5,0-1.5-1.5V115.7c0-1,.3-1.3,1.2-1.2h.7c12.5.1,25-.1,37.5-.2a37.8,37.8,0,0,0,12.5-2.2h0c1.4-.7,2.8-1.1,4.1-1.9h0a2.92,2.92,0,0,1,1.2-.7h0a16.67,16.67,0,0,1,1.6-1.2c.1-.1.2-.2.3-.2a33.15,33.15,0,0,0,2.7-2.6h0a18.39,18.39,0,0,1,1.7-2.2h0a13,13,0,0,1,1-1.5h0a5.85,5.85,0,0,1,1-1.7h0a10.09,10.09,0,0,1,.7-1.5c.1-.2.1-.3.2-.5a53,53,0,0,0,3.8-11A74,74,0,0,0,178,75.6a93.82,93.82,0,0,0,.3-10.6,71.58,71.58,0,0,0-.8-11.3,9.7,9.7,0,0,0-.1-1.7h0a72.42,72.42,0,0,0-2.2-9.2h0a21.52,21.52,0,0,1-1-2.7h0c-.6-1.3-1.3-2.6-1.9-3.9h0a9.5,9.5,0,0,1-1-1.7h0c-.3-.1-.3-.5-.5-.7s-.3-.5-.5-.7c-.4-.4-.6-1-1-1.4-.1-.1-.2-.2-.2-.3a8.65,8.65,0,0,1-.7-1h0c-1.3-1.3-2.5-2.7-3.8-3.9h0c-.5-.2-.8-.7-1.2-.9a17,17,0,0,1-1.4-1,7.46,7.46,0,0,1-1.2-.7c-.2-.1-.3-.2-.5-.3a25,25,0,0,0-3.8-1.5h0c-1.6-.5-3.4-.5-5.1-1h0c-2-.3-4-.4-5.9-.5-12.5-.3-25-.1-37.5-.1-1.8,0-1.8,0-1.8-1.8V1.5c0-1.4,0-1.5,1.4-1.5h41.5c1.9,0,3.8.3,5.7.3a1,1,0,0,1,.7.4c.3.3.6,0,.9-.1a45.78,45.78,0,0,1,8.9,2,1.6,1.6,0,0,1,1,.5.73.73,0,0,0,.6.2c.9.5,2.1.6,3,1.2h0A9.68,9.68,0,0,1,173,6.3c.2.1.5.3.7.4s.8.2,1,.5h0a3.71,3.71,0,0,1,1.7,1.3,10.63,10.63,0,0,1,1.1.9,1.16,1.16,0,0,1,.8.6l.2.2a3.25,3.25,0,0,1,1.3,1c1.5,1.6,3,3.1,4.5,4.7a1.52,1.52,0,0,1,1,1.2l.2.2c.5.1.5.6.8,1h0a3.45,3.45,0,0,1,.9,1.2h0a2.55,2.55,0,0,1,.8,1.2h0a14.22,14.22,0,0,1,2.1,3.3,34,34,0,0,1,2.7,5.4h0a39.78,39.78,0,0,1,2.6,6.8h0c1,2.2,1.3,4.6,2,6.9.8,3,1,6.1,1.6,9.1.3,1.4.1,2.8.3,4.1h0c.4,1.1-.1,2.3.2,3.4h0c.4.4.3.9.3,1.4,0,3.9.2,7.7-.1,11.6-.3,3.5-.4,7.1-.9,10.6a.52.52,0,0,1-.2.4h0c-.3,1.4-.3,2.9-.6,4.3-.1.4-.1.8-.5,1q-.3.15,0,.3c.5.3.1.5,0,.8a93,93,0,0,1-3.4,11.4,1.61,1.61,0,0,1-.4.7h0c-.3.6-.3,1.4-.8,1.9-.2.1-.2.2-.1.4-.3.6-.2,1.3-.8,1.8-.2.1-.2.2-.2.4A11.38,11.38,0,0,1,189.85,110.3Z" fill="#010101"/><path d="M96.75,134.5c-3.3,0-6.5-.1-9.8-.1s-6.5,0-9.7.1c-.7-.2-.4-.8-.4-1.2V75a3.21,3.21,0,0,0-.1-1.4h0a3.33,3.33,0,0,0-1.4-.1H31c-1.4,0-1.4,0-1.4-1.3V55.3c0-2,0-2,2.1-2h43.7c1.5,0,1.5,0,1.5-1.5V1.9c0-1.7-.2-1.5,1.5-1.5h17.8c.9,0,1.2.2,1.2,1.2.3,43.1,0,86.3.1,129.4a28.1,28.1,0,0,0-.1,2.9C97.15,134.1,97.15,134.4,96.75,134.5Z" fill="#010101"/><path d="M14.25,6.7l.5-.5c.6-.4,1-1.1,1.7-1.5.1-.1.2-.2.3-.2.8-.9,1.7-1.6,2.6-2.5.2-.2.4-.3.6-.2s.2.4.2.6V133.1c0,.5.2,1-.2,1.4H.25c-.4-.3-.2-.7-.2-1.1V20.4a2.24,2.24,0,0,1,.8-1.9c1-.7,1.7-1.7,2.7-2.3h0c1.5-1.4,3-2.8,4.6-4.1h0a7.72,7.72,0,0,1,1.9-1.7l.2-.2c.8-.5,1.2-1.6,2.2-1.9h0A14.54,14.54,0,0,1,14.25,6.7Z" fill="#010101"/><path d="M192.75,13.6l-.5-.5c-1.3-1-2.4-2.1-3.6-3.2h0a48.42,48.42,0,0,0-7.9-4.7,30.54,30.54,0,0,0-3.2-1.3c-.8-.3-.8-.8-.4-1.3,1.2-1.4,2.2-2.5,4.4-2.5,21.5.1,43.1.1,64.6.1.8,0,1.5,0,1.9.9h0a17.73,17.73,0,0,1,3.8,4.4l.2.2a10.73,10.73,0,0,1,2.5,2.7h0c1.8,1.7,3.3,3.6,5,5.4s3.3,3.7,4.9,5.5c.3.3.7.5.4,1s-.6.3-.9.3h-64.6a1.21,1.21,0,0,1-1-.3,19.5,19.5,0,0,1-1.8-2.5h0a34.74,34.74,0,0,1-3.1-3.6h0C193.15,14.2,193,13.9,192.75,13.6Z" fill="#010101"/><path d="M179.35,134.3l-.2-.2a2.34,2.34,0,0,1-.7-.7l-.7-.7c-1-1.1-.9-1.9.4-2.4a39.05,39.05,0,0,0,11.1-6.2,41.87,41.87,0,0,0,8.1-8.7,2.28,2.28,0,0,1,2.4-1.2c5.5.1,11,.1,16.4.1h49.7c.5,0,1.3-.3,1.5.3s-.6.9-1,1.3c-1.8,1.6-3.6,3.2-5.5,4.8-2.7,2.4-5.5,4.8-8.2,7.3-1.9,1.7-3.8,3.2-5.6,5a4.61,4.61,0,0,1-3.6,1.5c-20.9-.1-41.8,0-62.7,0C180.25,134.4,179.75,134.6,179.35,134.3Z" fill="#010101"/><path d="M97.15,142.5h-9.3c-.3,0-.8-.2-1,.1-.2.5.4.6.6.9a1.73,1.73,0,0,1,.1,1v12.2a2.08,2.08,0,0,1-.1,1.1.22.22,0,0,1-.2.2c-.6.5-.5.8.3.8,3.3,0,6.5.1,9.8-.1,4.4-.1,7.3-2.9,7.8-6.7C105.75,146.7,103,142.5,97.15,142.5Zm4.3,10c-.4,2.3-1.7,3.4-4.2,3.6-1.8.1-3.7,0-5.5.1-.7,0-.7-.4-.7-.8V146c0-.4-.1-.9.5-.8,2.2.1,4.4-.2,6.6.2a3.71,3.71,0,0,1,3.2,3.1A7.73,7.73,0,0,1,101.45,152.5Z" fill="#010101"/><path d="M158,155.9c3.3,0,6.6,0,9.9.1a1.23,1.23,0,0,0,1-.5c.6-.4.8-.3.8.5v2.7c0,.7-.2.8-.8.4a2.46,2.46,0,0,0-1.2-.1h-13c-.4,0-.8.1-1.1-.1,1-2.3.4-4.8.5-7.2s0-4.6,0-6.9V144c-.3-1.3-.3-1.3,1.1-1.3h9.2c1.7,0,3.4.2,5-.7a14.08,14.08,0,0,1,0,4.1c-.4.1-.6-.3-.9-.5-3.4-.2-6.7,0-10.1-.1-.4,0-.7.1-.6.6.1,1-.1,2.1.1,3.1,2.2,0,4.3.3,6.5-.2.2,0,.3-.2.5-.3s.2-.6.6-.5a.32.32,0,0,1,.3.3c-.1,1.5.3,3-.2,4.5-.7.1-.6-.7-1-.9a44.17,44.17,0,0,0-6.3-.1.47.47,0,0,0-.5.5C158,153.4,157.75,154.7,158,155.9Z" fill="#010101"/><path d="M4.65,143.4c-.1-.2-.6-.2-.4-.6s.4-.3.7-.3h3.1c1-.1,1,.3.5.9a25.28,25.28,0,0,0,0,5.5q4.8.15,9.6,0a27.15,27.15,0,0,0,0-5.7c-.2-.1-.5-.2-.4-.5s.2-.3.4-.3h4.5c-.9.8-.7,1.7-.7,2.5v11a4.42,4.42,0,0,0,.5,2.8,19.27,19.27,0,0,1-4.8,0c-.1-.4.2-.6.5-.7a50,50,0,0,0,.1-5.5c0-.5-.2-.6-.7-.6H9.05c-.4,0-.7.1-.7.6.1,1.8-.1,3.6.1,5.4.1.3.5.5.5.8a12.91,12.91,0,0,1-4.8,0c-.1-.4.2-.6.5-.8.2-2.2.1-4.5.1-6.7A67.67,67.67,0,0,0,4.65,143.4Z" fill="#010101"/><path d="M209.15,145.9c-.5-.3-.7-.7.1-.8,1.2-.1,2.3,0,3.5,0,.2,0,.5,0,.5.4-.1.8.6,1.3,1.1,1.8,1.9,2.1,3.9,4.1,5.9,6.1a2.42,2.42,0,0,0,1.1.8c-.4-3,.6-6.1-.7-9.1h3.2c.7,0,.6.4.2.8a6.47,6.47,0,0,0-.1,2.4v8.6a2.46,2.46,0,0,0,.1,1.2h0c.4.4.5.8-.2.8-1,.1-2,0-3,0-.6,0-.6-.4-.4-.8-2.7-3-5.4-5.9-8.2-8.9-.1,0-.2.1-.3.1.2,2.9-.3,5.8.3,8.8.4.3.6.8,0,.8-1.2,0-2.4.4-3.5-.2.2-.2.3-.5.5-.7a5,5,0,0,0,.1-2.1v-8.8A5,5,0,0,0,209.15,145.9Z" fill="#010101"/><path d="M36.55,152.2a7.69,7.69,0,0,1,1-4.2c1.1-1.8,2.9-2.5,4.9-2.9a11.4,11.4,0,0,1,7.7.9,1.69,1.69,0,0,0,.5.2c2.3-.5.6.8.5,1.2a5,5,0,0,1-1.2,2.1c-.6-2-2.4-2.2-4-2.3a6.07,6.07,0,0,0-5.4,1.7,4.59,4.59,0,0,0-1,2.5,4.08,4.08,0,0,0,3.3,4.5,11.13,11.13,0,0,0,6-.2c.8-.2.8-.7.8-1.4s-.6-.6-1-.6c-1.1.1-2.2-.5-3.2.5-.2.2-.4-.1-.5-.3v-1.2c0-.9-.4-2.2,1.4-1.3.4.2.9,0,1.4,0h4.7c-.4,1.7-.7,3.3,0,4.9.2.4-.3.4-.5.6a9.12,9.12,0,0,1-4.2,1.4c-2.7.2-5.4.4-8-1a5.85,5.85,0,0,1-3.1-4.2C36.55,153.1,36.85,152.6,36.55,152.2Z" fill="#010101"/><path d="M60.85,153.3c0,1.4,0,2.8-.1,4.1,0,.5.4.8.5,1.3a7.75,7.75,0,0,1-4,0,4.86,4.86,0,0,0,.5-2.9v-8.6c0-.4.1-.7-.1-1-.7-.8-.2-1,.6-1h3c-.8,1.7-.3,3.3-.4,4.8,0,.5.3.5.7.5h6.8c.6,0,.8-.3.7-.8-.2-1.3.4-2.7-.4-4-.2-.3,0-.5.4-.5h3.7a2.88,2.88,0,0,0-.7,2.2v9.5a3.2,3.2,0,0,0,.5,1.9,7.75,7.75,0,0,1-4,0c.8-1.8.4-3.6.4-5.4A43.84,43.84,0,0,0,60.85,153.3Z" fill="#010101"/><path d="M252.15,156.2c.3.1.6-.1.9-.2.7-.3,1.3-.7,1.2-1.4s-.8-.9-1.4-1c-1.9-.3-3.8-.6-5.7-1-1.3-.3-2.7-.8-3-2.6a4.85,4.85,0,0,1,0-1.7c.3-1.8,1.7-2.6,3.3-3a11.18,11.18,0,0,1,8,.9c.4.2.7.5,1.3.3s.8.2.5.8a2.51,2.51,0,0,1-.4.7c-.4.5-.4,1.3-1,1.4s-.7-.7-1.2-.9a8,8,0,0,0-2.6-.9,8.6,8.6,0,0,0-3.2,0c-.8,0-1.6.3-1.6,1.2s.7,1.1,1.4,1.3a10.32,10.32,0,0,0,3,.4c.4.3.8,0,1.2.2a19.85,19.85,0,0,1,2.6.9,3.4,3.4,0,0,1,.7,5.8,6.56,6.56,0,0,1-3.8,1.4,17,17,0,0,1-8-1.4c-.6-.2-.6-.5-.4-.9.3-.7.6-1.4.9-2.2a.63.63,0,0,1,.6-.5c.5-.1.3.3.4.6a1.6,1.6,0,0,0,.7.9,6.2,6.2,0,0,0,3,.9A11.22,11.22,0,0,0,252.15,156.2Z" fill="#010101"/><path d="M113.15,147.8c-.2,2.6-.2,2.6,2.5,2.7a15,15,0,0,0,3.7-.5,9.52,9.52,0,0,1,.1,2.9c0,.7-.4.6-.8.2h0a25.28,25.28,0,0,0-5.5,0c-.2,3.4-.2,3.4,3.1,3.4h4.1a2.77,2.77,0,0,0,.9-.1c1.2-.6,1.2-.6,1.2.8v1.6c0,.4-.1.8-.7.4a8.78,8.78,0,0,0-2.8-.1h-8.3c-.5,0-1.3.1-.7-.8l.2-.2c.2-2.3.1-4.6.1-6.9a27.85,27.85,0,0,0-.1-5c-.1-.3-.6-.3-.4-.7s.5-.2.7-.2h9.6c.4,0,.8.1,1.1-.1,1.3-.8,1.3,0,1.2.9a8.53,8.53,0,0,1,0,1.6c-.1.6-.5.8-.9.2A33,33,0,0,0,113.15,147.8Z" fill="#010101"/><path d="M191.65,158.1l.2-.2a32.33,32.33,0,0,0,.1-4.4c0-2.5.1-5-.1-7.5-.1-.3-.6-.3-.4-.7s.5-.2.7-.2h9.2a3.52,3.52,0,0,0,2-.3c.4-.3.7-.2.7.4a19.22,19.22,0,0,1,0,2.4c-.1.9-.5.8-.9.2a54.75,54.75,0,0,0-8.1,0c-.2,2.6-.2,2.7,2.5,2.6,1.1,0,2.3.4,3.3-.5.3-.1.6,0,.6.3a22.53,22.53,0,0,1,0,2.6c-.1.7-.4.6-.8.2h0a25.28,25.28,0,0,0-5.5,0c-.2,3.4-.2,3.4,3.1,3.4h4.1a2.77,2.77,0,0,0,.9-.1c1.2-.6,1.2-.6,1.2.8v1.6c0,.4-.1.8-.7.4a8.78,8.78,0,0,0-2.8-.1h-8.3C192,158.9,191.15,159.1,191.65,158.1Z" fill="#010101"/><path d="M130.45,147.8c-.2,2.9-.2,2.9,2.6,2.9a11.55,11.55,0,0,0,4.1-.5,10.07,10.07,0,0,1,.1,3c0,.4-.2.5-.6.4l-.3-.3a29.08,29.08,0,0,0-5.9,0c0,1.4,0,2.7-.1,4.1-.1.7.6.8.8,1.3a12.43,12.43,0,0,1-4.3.1c-.1-.1-.3-.3-.2-.4,1-.6.7-1.5.7-2.3v-8.9c0-.8.1-1.5-.8-1.9.3-.5.8-.3,1.1-.3h9.2a9.12,9.12,0,0,0,3.3-.5,7.35,7.35,0,0,1,0,3.3c-.3,0-.6.1-.8-.2a31.47,31.47,0,0,0-5.3-.1A21.86,21.86,0,0,0,130.45,147.8Z" fill="#010101"/><path d="M178.25,158.1c.1-1.2-.7-2.1-1.2-3-1.2-2.7-2.5-5.4-3.7-8.1-.3-.6-.9-.9-1.2-1.8h4.1c.3,0,.6.1.4.4-.6,1.1.2,1.8.5,2.7,1,2.3,2.1,4.5,3.2,6.9a79.91,79.91,0,0,0,3.3-7.4c.3-.8,1.3-1.5,0-2.5h4.5a28.48,28.48,0,0,0-2.8,5.5l-2.7,6a2,2,0,0,0,0,2.1,19.67,19.67,0,0,1-4.2.1C178,158.9,178,158.5,178.25,158.1Z" fill="#010101"/><path d="M236.25,157.9c.1.3.5.4.5.8a9.45,9.45,0,0,1-4.1,0c1-3.6.3-7.3.4-11a17,17,0,0,0-4.5,0c-.4.2-.8.4-.8-.3v-3.3c1,1.1,2.1.9,3.1.9,2.4,0,4.7-.1,7.1,0a7.54,7.54,0,0,0,3.3-.7,16.86,16.86,0,0,1,.1,3.2c0,.4-.1.6-.6.5l-.3-.3a16.12,16.12,0,0,0-3.8-.1c-.5,0-.6.2-.6.6C236.15,151.5,236,154.7,236.25,157.9Z" fill="#010101"/><path d="M32.25,145.8c-.4.2-.3.6-.3.9v10.4c0,.3-.1.7.3.9.2.2.6.1.6.5s-.4.3-.7.3h-3.5c-.2,0-.5,0-.6-.3s.3-.4.5-.6c.4-.3.3-.7.3-1.1V146.7a1.43,1.43,0,0,0-.3-1.1c-.2-.2-.7-.2-.4-.7h4.6C33.05,145.7,32.45,145.6,32.25,145.8Z" fill="#010101"/><path d="M234.65,55h23c1,0,1.3.2,1.3,1.3-.1,5.9,0,11.8,0,17.6,0,1-.3,1.2-1.2,1.2h-46.1c-.7,0-1.1-.1-1-1a113.09,113.09,0,0,0-.3-18.4c-.1-1,.6-.7,1-.7h23.3Z" fill="#010101"/></svg>