<svg xmlns="http://www.w3.org/2000/svg" xmlns:xlink="http://www.w3.org/1999/xlink" width="135" height="40" viewBox="0 0 135 40"><defs><linearGradient id="a" x1="50.22" y1="1984.78" x2="33.44" y2="2001.56" gradientTransform="translate(-28.35 -1976)" gradientUnits="userSpaceOnUse"><stop offset="0" stop-color="#00a0ff"/><stop offset="0.01" stop-color="#00a1ff"/><stop offset="0.26" stop-color="#00beff"/><stop offset="0.51" stop-color="#00d2ff"/><stop offset="0.76" stop-color="#00dfff"/><stop offset="1" stop-color="#00e3ff"/></linearGradient><linearGradient id="b" x1="62.21" y1="1996.05" x2="38.02" y2="1996.05" gradientTransform="translate(-28.35 -1976)" gradientUnits="userSpaceOnUse"><stop offset="0" stop-color="#ffe000"/><stop offset="0.41" stop-color="#ffbd00"/><stop offset="0.78" stop-color="orange"/><stop offset="1" stop-color="#ff9c00"/></linearGradient><linearGradient id="c" x1="53.21" y1="1998.34" x2="30.46" y2="2021.09" gradientTransform="translate(-28.35 -1976)" gradientUnits="userSpaceOnUse"><stop offset="0" stop-color="#ff3a44"/><stop offset="1" stop-color="#c31162"/></linearGradient><linearGradient id="d" x1="35.7" y1="1976.2" x2="45.86" y2="1986.36" gradientTransform="translate(-28.35 -1976)" gradientUnits="userSpaceOnUse"><stop offset="0" stop-color="#32a071"/><stop offset="0.07" stop-color="#2da771"/><stop offset="0.48" stop-color="#15cf74"/><stop offset="0.8" stop-color="#06e775"/><stop offset="1" stop-color="#00f076"/></linearGradient></defs><path d="M5,0H130a5,5,0,0,1,5,5V35a5,5,0,0,1-5,5H5a5,5,0,0,1-5-5V5A5.08,5.08,0,0,1,5,0Z"/><path d="M130,.8A4.23,4.23,0,0,1,134.2,5V35a4.23,4.23,0,0,1-4.2,4.2H5A4.23,4.23,0,0,1,.8,35V5A4.23,4.23,0,0,1,5,.8H130m0-.8H5A5,5,0,0,0,0,5V35a5,5,0,0,0,5,5H130a5,5,0,0,0,5-5V5A5,5,0,0,0,130,0Z" fill="#a6a6a6"/><path d="M47.5,10.3a2.57,2.57,0,0,1-.8,2A3.1,3.1,0,1,1,44.5,7a5,5,0,0,1,1.2.2,1.6,1.6,0,0,1,.9.7l-.5.5a1.73,1.73,0,0,0-1.6-.7,2.4,2.4,0,1,0,0,4.8,2.34,2.34,0,0,0,1.7-.7,1.85,1.85,0,0,0,.5-1.2H44.5V9.9h2.9C47.4,10,47.5,10.1,47.5,10.3Z" fill="#fff" stroke="#fff" stroke-miterlimit="10" stroke-width="0.2"/><path d="M52.1,7.8H49.4V9.7h2.5v.7H49.4v1.9h2.7V13H48.6V7h3.5Z" fill="#fff" stroke="#fff" stroke-miterlimit="10" stroke-width="0.2"/><path d="M55.3,13h-.8V7.7H52.8V7h4.1v.7H55.2l.1,5.3Z" fill="#fff" stroke="#fff" stroke-miterlimit="10" stroke-width="0.2"/><path d="M60,13V7h.8v6Z" fill="#fff" stroke="#fff" stroke-miterlimit="10" stroke-width="0.2"/><path d="M64.2,13h-.8V7.7H61.7V7h4.1v.7H64.1Z" fill="#fff" stroke="#fff" stroke-miterlimit="10" stroke-width="0.2"/><path d="M73.7,12.2a3.14,3.14,0,0,1-4.4,0h0a3.11,3.11,0,0,1,4.4-4.4h0a3.14,3.14,0,0,1,0,4.4Zm-3.8-.5a2.36,2.36,0,0,0,1.6.7,2,2,0,0,0,1.6-.7,2.48,2.48,0,0,0,0-3.4,2.36,2.36,0,0,0-1.6-.7,2,2,0,0,0-1.6.7A2.48,2.48,0,0,0,69.9,11.7Z" fill="#fff" stroke="#fff" stroke-miterlimit="10" stroke-width="0.2"/><path d="M75.6,13V7h.9l2.9,4.7h0V7h.8v6h-.8l-3-4.9h0V13Z" fill="#fff" stroke="#fff" stroke-miterlimit="10" stroke-width="0.2"/><path d="M68.2,21.8a4.25,4.25,0,0,0,.1,8.5A4.18,4.18,0,0,0,72.5,26a4.29,4.29,0,0,0-4.1-4.3A.31.31,0,0,1,68.2,21.8Zm0,6.8a2.61,2.61,0,1,1,2.4-2.8V26a2.54,2.54,0,0,1-2.4,2.6Zm-9.3-6.8a4.25,4.25,0,0,0,.1,8.5A4.18,4.18,0,0,0,63.2,26a4.29,4.29,0,0,0-4.1-4.3Zm0,6.8a2.61,2.61,0,1,1,2.4-2.8V26a2.54,2.54,0,0,1-2.4,2.6ZM47.8,23.1v1.8h4.3a4.3,4.3,0,0,1-1,2.3,4.22,4.22,0,0,1-3.3,1.3,4.8,4.8,0,1,1,0-9.6,5.07,5.07,0,0,1,3.3,1.3l1.3-1.3a6.27,6.27,0,0,0-4.5-1.8A6.73,6.73,0,0,0,41,23.4a6.66,6.66,0,0,0,6.3,6.9h.5a5.83,5.83,0,0,0,6.2-6,3.75,3.75,0,0,0-.1-1.1l-6.1-.1Zm45.3,1.4a3.89,3.89,0,0,0-7.6,1.3v.3a4.26,4.26,0,0,0,7.8,2.4l-1.4-1a2.44,2.44,0,0,1-2.1,1.2,2.33,2.33,0,0,1-2.1-1.3l5.7-2.3Zm-5.8,1.4a2.35,2.35,0,0,1,2.2-2.5h.1a1.7,1.7,0,0,1,1.6.9ZM82.7,30h1.9V17.5H82.7Zm-3.1-7.3h0a3.45,3.45,0,0,0-2.3-1,4.26,4.26,0,0,0,0,8.5,2.57,2.57,0,0,0,2.2-1h.1v.6a2.16,2.16,0,0,1-1.8,2.5h-.4a2.16,2.16,0,0,1-2.1-1.5l-1.6.7A4.06,4.06,0,0,0,77.5,34c2.2,0,4-1.3,4-4.4V22H79.7Zm-2.1,5.9a2.57,2.57,0,1,1,2.2-2.2A2.77,2.77,0,0,1,77.5,28.6Zm24.3-11.1H97.3V30h1.9V25.3h2.6a3.91,3.91,0,0,0,.6-7.8Zm0,6H99.2V19.2h2.6a2.11,2.11,0,0,1,2.1,2.1,2,2,0,0,1-2.1,2.2Zm11.6-1.8a3.45,3.45,0,0,0-3.3,1.9l1.7.7a1.68,1.68,0,0,1,1.7-.9,1.81,1.81,0,0,1,2,1.6h0v.1a4.49,4.49,0,0,0-1.9-.5c-1.8,0-3.6,1-3.6,2.8a3,3,0,0,0,3,2.8h.1a2.53,2.53,0,0,0,2.4-1.2h.1v1h1.8V25.2c-.2-2.2-1.8-3.4-4-3.5Zm-.3,6.9c-.6,0-1.5-.3-1.5-1.1,0-1,1.1-1.3,2-1.3a3.29,3.29,0,0,1,1.7.4,2.12,2.12,0,0,1-2.2,2ZM123.8,22l-2.1,5.4h-.1L119.3,22h-2l3.3,7.6-1.9,4.2h1.9L125.8,22ZM107,30h1.9V17.5H107Z" fill="#fff"/><path d="M10.5,7.6A2.39,2.39,0,0,0,10,9V31.1a1.87,1.87,0,0,0,.5,1.4l.1.1L23,20.2v-.3L10.5,7.6Z" fill="url(#a)"/><path d="M27.1,24.3,23,20.2v-.3l4.1-4.1.1.1,4.9,2.8c1.4.8,1.4,2.1,0,2.9l-5,2.7Z" fill="url(#b)"/><path d="M27.2,24.2,23,20,10.5,32.5a1.81,1.81,0,0,0,2.1.1l14.6-8.4" fill="url(#c)"/><path d="M27.2,15.8,12.6,7.5a1.55,1.55,0,0,0-2.1.1L23,20.1Z" fill="url(#d)"/><path d="M27.1,24.2,12.6,32.4a1.82,1.82,0,0,1-2,0h0l-.1.1h0l.1.1h0a1.82,1.82,0,0,0,2,0l14.5-8.4Z" opacity="0.2" style="isolation:isolate"/><path d="M10.5,32.3a2.39,2.39,0,0,1-.5-1.4v.2a1.87,1.87,0,0,0,.5,1.4v-.2Z" opacity="0.12" style="isolation:isolate"/><path d="M32,21.3l-5,2.8.1.1L32,21.4A1.81,1.81,0,0,0,33,20h0A1.52,1.52,0,0,1,32,21.3Z" opacity="0.12" style="isolation:isolate"/><path d="M12.5,7.6,32,18.7A1.89,1.89,0,0,1,33,20h0a1.66,1.66,0,0,0-1-1.4L12.5,7.6C11.1,6.7,10,7.4,10,9v.2C10,7.5,11.1,6.9,12.5,7.6Z" fill="#fff" opacity="0.25" style="isolation:isolate"/></svg>